<svg xmlns="http://www.w3.org/2000/svg" viewBox="0 0 622.37 757.09"><defs><style>.cls-1{fill:#f19d3d;}</style></defs><title>bhb_molecule</title><g id="Layer_2" data-name="Layer 2"><g id="data"><path class="cls-1" d="M447.49,521.59a44.63,44.63,0,0,1-1.87,13.46,27.23,27.23,0,0,1-5.56,10.08,24,24,0,0,1-9.14,6.31,33.89,33.89,0,0,1-12.61,2.17A37.18,37.18,0,0,1,406,551.77a21.31,21.31,0,0,1-8.77-5.64A24,24,0,0,1,392,536.5a48.38,48.38,0,0,1-1.75-13.84,43.37,43.37,0,0,1,1.87-13.21,27,27,0,0,1,5.56-10,24.36,24.36,0,0,1,9.14-6.31,33.55,33.55,0,0,1,12.65-2.2,36.87,36.87,0,0,1,12.13,1.83,21.19,21.19,0,0,1,8.79,5.61,24.44,24.44,0,0,1,5.33,9.56A46,46,0,0,1,447.49,521.59Zm-12.9.65a46.06,46.06,0,0,0-.75-8.67,18.75,18.75,0,0,0-2.55-6.69,12.2,12.2,0,0,0-4.79-4.3,16.49,16.49,0,0,0-7.48-1.52,15.29,15.29,0,0,0-7.58,1.71,14,14,0,0,0-4.91,4.56,19,19,0,0,0-2.64,6.66,40.91,40.91,0,0,0-.77,8.06,48,48,0,0,0,.75,8.91,19.27,19.27,0,0,0,2.52,6.76,11.73,11.73,0,0,0,4.77,4.28,17.07,17.07,0,0,0,7.53,1.47,15.36,15.36,0,0,0,7.57-1.69,13.41,13.41,0,0,0,4.91-4.58,19.14,19.14,0,0,0,2.64-6.75A41.38,41.38,0,0,0,434.59,522.24Z"/><path class="cls-1" d="M564.81,725.06a44.7,44.7,0,0,1-1.87,13.47,27.11,27.11,0,0,1-5.56,10.07,24,24,0,0,1-9.14,6.32,34,34,0,0,1-12.6,2.17,37.18,37.18,0,0,1-12.32-1.85,21.39,21.39,0,0,1-8.77-5.63,24.18,24.18,0,0,1-5.26-9.63,48.43,48.43,0,0,1-1.75-13.84,43.28,43.28,0,0,1,1.87-13.21A26.89,26.89,0,0,1,515,703a24.14,24.14,0,0,1,9.14-6.31,33.55,33.55,0,0,1,12.65-2.2,37.15,37.15,0,0,1,12.13,1.82,21.39,21.39,0,0,1,8.79,5.61,24.51,24.51,0,0,1,5.33,9.56A46,46,0,0,1,564.81,725.06Zm-12.9.66a46.25,46.25,0,0,0-.75-8.68,18.63,18.63,0,0,0-2.55-6.68,12.12,12.12,0,0,0-4.79-4.3,16.36,16.36,0,0,0-7.48-1.52,15.4,15.4,0,0,0-7.58,1.7,14,14,0,0,0-4.91,4.56,19,19,0,0,0-2.64,6.66,41,41,0,0,0-.77,8.07,48.12,48.12,0,0,0,.75,8.91,19.29,19.29,0,0,0,2.52,6.75,11.66,11.66,0,0,0,4.77,4.28,17.07,17.07,0,0,0,7.53,1.47,15.47,15.47,0,0,0,7.57-1.68,13.5,13.5,0,0,0,4.91-4.58,19.39,19.39,0,0,0,2.65-6.76A42.05,42.05,0,0,0,551.91,725.72Z"/><path class="cls-1" d="M622.37,754.33a1.27,1.27,0,0,1-.31.84,2.12,2.12,0,0,1-1,.61,9.3,9.3,0,0,1-1.87.37,24.13,24.13,0,0,1-3,.14,25.1,25.1,0,0,1-3-.14,8.74,8.74,0,0,1-1.87-.37,2.18,2.18,0,0,1-1-.61,1.31,1.31,0,0,1-.3-.84V729.88H587.44v24.45a1.35,1.35,0,0,1-.28.84,2,2,0,0,1-1,.61,9.3,9.3,0,0,1-1.87.37,31.79,31.79,0,0,1-6,0,9.37,9.37,0,0,1-1.9-.37,2.17,2.17,0,0,1-1-.61,1.32,1.32,0,0,1-.31-.84V697.2a1.35,1.35,0,0,1,.31-.85,2.16,2.16,0,0,1,1-.6,10,10,0,0,1,1.9-.38,31.79,31.79,0,0,1,6,0,10,10,0,0,1,1.87.38,2,2,0,0,1,1,.6,1.38,1.38,0,0,1,.28.85v22.2h22.63V697.2a1.34,1.34,0,0,1,.3-.85,2.18,2.18,0,0,1,1-.6,9.31,9.31,0,0,1,1.87-.38,27.39,27.39,0,0,1,3-.14,26.33,26.33,0,0,1,3,.14,10,10,0,0,1,1.87.38,2.11,2.11,0,0,1,1,.6,1.29,1.29,0,0,1,.31.85Z"/><path class="cls-1" d="M212.09,521.59a44.63,44.63,0,0,1-1.87,13.46,27.09,27.09,0,0,1-5.56,10.08,23.92,23.92,0,0,1-9.14,6.31,33.8,33.8,0,0,1-12.6,2.17,37.24,37.24,0,0,1-12.32-1.84,21.31,21.31,0,0,1-8.77-5.64,24.16,24.16,0,0,1-5.26-9.63,48.38,48.38,0,0,1-1.75-13.84,43.37,43.37,0,0,1,1.87-13.21,27.11,27.11,0,0,1,5.56-10,24.44,24.44,0,0,1,9.14-6.31A33.59,33.59,0,0,1,184,491a36.83,36.83,0,0,1,12.13,1.83A21.19,21.19,0,0,1,205,498.4a24.32,24.32,0,0,1,5.33,9.56A46,46,0,0,1,212.09,521.59Zm-12.9.65a46.06,46.06,0,0,0-.75-8.67,18.75,18.75,0,0,0-2.55-6.69,12.13,12.13,0,0,0-4.79-4.3,16.46,16.46,0,0,0-7.48-1.52,15.25,15.25,0,0,0-7.57,1.71,13.88,13.88,0,0,0-4.91,4.56A18.67,18.67,0,0,0,168.5,514a40.15,40.15,0,0,0-.78,8.06,48,48,0,0,0,.75,8.91,19.08,19.08,0,0,0,2.53,6.76,11.61,11.61,0,0,0,4.77,4.28,17,17,0,0,0,7.52,1.47,15.4,15.4,0,0,0,7.58-1.69,13.57,13.57,0,0,0,4.91-4.58,19.52,19.52,0,0,0,2.64-6.75A42.16,42.16,0,0,0,199.19,522.24Z"/><path class="cls-1" d="M269.65,550.85a1.32,1.32,0,0,1-.3.85,2.21,2.21,0,0,1-1,.61,10.06,10.06,0,0,1-1.87.37,26.26,26.26,0,0,1-2.94.14,27.46,27.46,0,0,1-3-.14,9.41,9.41,0,0,1-1.87-.37,2.15,2.15,0,0,1-1-.61,1.27,1.27,0,0,1-.31-.85V526.4H234.72v24.45a1.36,1.36,0,0,1-.28.85,2,2,0,0,1-1,.61,10.06,10.06,0,0,1-1.87.37,31.79,31.79,0,0,1-6,0,10,10,0,0,1-1.89-.37,2.15,2.15,0,0,1-1-.61,1.32,1.32,0,0,1-.3-.85V493.72a1.31,1.31,0,0,1,.3-.84,2.15,2.15,0,0,1,1-.61,10,10,0,0,1,1.89-.37,31.79,31.79,0,0,1,6,0,10.06,10.06,0,0,1,1.87.37,2,2,0,0,1,1,.61,1.35,1.35,0,0,1,.28.84v22.21h22.63V493.72a1.27,1.27,0,0,1,.31-.84,2.15,2.15,0,0,1,1-.61,9.41,9.41,0,0,1,1.87-.37,25.17,25.17,0,0,1,3-.14,24.06,24.06,0,0,1,2.94.14,10.06,10.06,0,0,1,1.87.37,2.21,2.21,0,0,1,1,.61,1.31,1.31,0,0,1,.3.84Z"/><rect class="cls-1" x="428.78" y="569.65" width="13.57" height="97.35"/><rect class="cls-1" x="394.86" y="569.65" width="13.57" height="97.35"/><polygon class="cls-1" points="499.4 696.13 492.61 708.1 418.4 665.41 418.4 649.45 499.4 696.13"/><polygon class="cls-1" points="301.11 733.24 301.11 717.28 418.4 649.45 418.4 665.41 301.11 733.24"/><polygon class="cls-1" points="183.41 665.41 183.41 657.43 190.19 653.44 301.11 717.28 301.11 733.24 183.41 665.41"/><polygon class="cls-1" points="176.63 569.26 190.19 569.26 190.19 653.44 183.41 657.43 176.63 653.44 176.63 569.26"/><polygon class="cls-1" points="69.3 731.24 62.52 719.27 176.63 653.44 183.41 657.43 183.41 665.41 69.3 731.24"/><path class="cls-1" d="M517.81,201.63a45.93,45.93,0,0,0-37.24,19l-31.72-18.34a52.08,52.08,0,0,0-30.43-71.14V88.83a46,46,0,1,0-33.69,0v42.32a52.08,52.08,0,0,0-30.43,71.14l-26.44,15.29a52.06,52.06,0,0,0-85.12.12l-27.09-15.55a52.07,52.07,0,0,0-42.59-73.58V91.78a46,46,0,1,0-9.49,0v36.79A52.08,52.08,0,0,0,121,202.29L94.6,217.58a51.83,51.83,0,1,0,4.76,8.21L125.8,210.5a52.06,52.06,0,0,0,85.12-.13L238,225.92a52.08,52.08,0,1,0,94.62-.13l26.44-15.29a52.07,52.07,0,0,0,85,0l31.73,18.34a46,46,0,1,0,42-27.21Zm-425.51,46A40.11,40.11,0,1,1,89,231.75,40.22,40.22,0,0,1,92.3,247.64Zm108.29-43.2a40.22,40.22,0,1,1-37-63.94,39,39,0,0,1,9.49,0,40.21,40.21,0,0,1,27.53,63.94ZM168.32,11.86a34.14,34.14,0,0,1,4.74,68,33.28,33.28,0,0,1-9.49,0,34.15,34.15,0,0,1,4.75-68ZM325.56,247.64a40.22,40.22,0,1,1-77.22-15.78,39.7,39.7,0,0,1,4.73-8.23,40.21,40.21,0,0,1,72.49,24Zm108.22-43.11a40.18,40.18,0,1,1,4.75-8.21A40.16,40.16,0,0,1,433.78,204.53ZM401.57,11.86A34.15,34.15,0,1,1,367.43,46,34.15,34.15,0,0,1,401.57,11.86Zm-7.35,79.57a46.14,46.14,0,0,0,14.71,0v37.45a51.3,51.3,0,0,0-14.71,0ZM517.81,281.79a34.15,34.15,0,0,1-31.65-47,33.72,33.72,0,0,1,4.76-8.21,34.14,34.14,0,1,1,26.89,55.18Z"/></g></g></svg>