<svg xmlns="http://www.w3.org/2000/svg" viewBox="0 0 55.23 64.51"><defs><style>.cls-1{fill:#fff;}</style></defs><title>icon_flame</title><g id="Layer_2" data-name="Layer 2"><g id="_1" data-name=" 1"><path class="cls-1" d="M50.4,33.33c0,7.09-7,8.21-7,8.21,5.15-12.25-5-21.94-5-21.94C39.94,32.09,30,32.25,30,32.25,39.08,11.49,19.56,0,19.56,0S33,12.47,11.89,29.74,4.21,60.45,4.21,60.45H0v4.06H52.53V60.45h-4C62.41,46.83,50.4,33.33,50.4,33.33ZM10.78,60.45S4.21,44.7,22.67,37.78c0,0-4.62,9.22-1.25,13.3a18.13,18.13,0,0,1,10.29-7.27s-3.19,6.56-.88,10.47c0,0,4.43-4.52,10.11-5,0,0-4.12,6.69-.28,11.14Z"/></g></g></svg>