<svg xmlns="http://www.w3.org/2000/svg" viewBox="0 0 597.61 597.61"><defs><style>.cls-1{fill:#231f20;}</style></defs><title>icon_gmp</title><g id="Layer_2" data-name="Layer 2"><g id="Layer_1-2" data-name="Layer 1"><path class="cls-1" d="M298.8,597.61h0A298.8,298.8,0,0,1,87.52,87.52,298.8,298.8,0,1,1,510.09,510.09,296.82,296.82,0,0,1,298.8,597.61Zm0-588.82A290,290,0,0,0,93.73,503.88,290,290,0,0,0,503.88,93.73,288.15,288.15,0,0,0,298.81,8.79Z"/><path class="cls-1" d="M298.81,582.23h0A283.43,283.43,0,0,1,98.39,98.39,283.43,283.43,0,0,1,499.22,499.22,281.56,281.56,0,0,1,298.81,582.23Zm0-562.45A279,279,0,0,0,101.5,496.11,279,279,0,1,0,496.11,101.5a277.15,277.15,0,0,0-197.3-81.72Z"/><path class="cls-1" d="M298.85,483.92h0a184.81,184.81,0,1,1,130.66-54.13A183.58,183.58,0,0,1,298.85,483.92Zm0-365.2a180.39,180.39,0,1,0,127.56,52.84A179.26,179.26,0,0,0,298.85,118.72Z"/><path class="cls-1" d="M86.51,386.46q7.77-3.81,14-2.44t9.34,7.72q3.34,6.79.28,12.9a21.65,21.65,0,0,1-10.29,9.67q-7.58,3.72-14.18,2a14.64,14.64,0,0,1-9.78-8.17,15.58,15.58,0,0,1-1.63-8.06A14.07,14.07,0,0,1,77,392.58l6,4.23a7.88,7.88,0,0,0-.5,8.37A7.35,7.35,0,0,0,88,409.39c2.56.47,5.41-.08,8.57-1.63s5.43-3.53,6.63-5.83a7.62,7.62,0,0,0,.06-7.1q-2.28-4.4-6.65-3.77l2.84,5.77L93.13,400Z"/><path class="cls-1" d="M74.77,350.66q8.33-2.52,14.43-.05a13.52,13.52,0,0,1,8.1,9.1q2.24,7.4-2.21,13-3.87,4.88-11.48,7.18-8.28,2.5-14.33,0a13.71,13.71,0,0,1-8.09-9.27A13.49,13.49,0,0,1,63,358.68Q66.75,353.09,74.77,350.66Zm2,6.85q-5.24,1.53-7.5,4.35a6.86,6.86,0,0,0-1.11,6.68,7,7,0,0,0,4.47,4.81q3.39,1.23,8.91-.45,5.31-1.61,7.62-4.49a7.19,7.19,0,0,0-3.56-11.3A15,15,0,0,0,76.73,357.51Z"/><path class="cls-1" d="M69.27,313.19q8.64-1.12,14.24,2.32a13.47,13.47,0,0,1,6.5,10.3q1,7.67-4.3,12.47-4.62,4.17-12.5,5.19-8.58,1.13-14.13-2.33a13.71,13.71,0,0,1-6.47-10.47,13.53,13.53,0,0,1,3.74-11.49Q61,314.28,69.27,313.19Zm.81,7.08q-5.4.66-8.11,3.07a6.85,6.85,0,0,0-2.18,6.4,7,7,0,0,0,3.62,5.48c2.09,1.18,5,1.51,8.86,1s6.42-1.54,8.26-3.19a7.18,7.18,0,0,0-1.66-11.72Q75.42,319.58,70.08,320.27Z"/><path class="cls-1" d="M70.08,275.58q8.33.33,13.11,5.44t4.47,13.27l-.44,11.37-36.55-1.41.44-11.37q.31-8.2,5.51-12.91T70.08,275.58Zm-.28,7.13q-5.16-.19-8.18,2.49a10.2,10.2,0,0,0-3.21,7.58l-.18,4.57,22,.85.17-4.57a10.18,10.18,0,0,0-2.61-7.81C75.9,283.88,73.25,282.84,69.8,282.71Z"/><path class="cls-1" d="M102.34,220.17,100.19,227l-18.9-5.93,16,15.18-21.89,3.58,18.9,5.92-2.15,6.86-34.9-10.95,2.15-6.85,22.15-3.5L65.29,216.08l2.15-6.86Z"/><path class="cls-1" d="M121.19,183.56l-3.65,6.87-9.18-.93-6.76,12.74,5.92,7.09-3.65,6.87L78.45,186.07,82,179.39Zm-20.65,5.12-11-1.19,7,8.74Z"/><path class="cls-1" d="M141.9,157,138,161.94l-28.26-1.87,18.43,14.43-4.43,5.66L95,157.61,99.41,152l26.91,1.92L108.7,140.08l4.4-5.62Z"/><path class="cls-1" d="M158.29,121.31a17,17,0,0,1,4.16,7.46,13.76,13.76,0,0,1-.33,7.4,14.07,14.07,0,0,1-4.09,6.4,14.72,14.72,0,0,1-10.64,3.84A13.42,13.42,0,0,1,137.33,142l-15.34-17,5.33-4.81L142.48,137a6.86,6.86,0,0,0,5.15,2.25,7.61,7.61,0,0,0,5.44-2,6.81,6.81,0,0,0,2.33-7.08,9.45,9.45,0,0,0-2.41-4.06l-14.47-16,5.3-4.77Z"/><path class="cls-1" d="M181,89.11,164.19,99.79l3.5,5.52L177.61,99l3.92,6.16-9.93,6.31,8.29,13-6.07,3.86L154.21,97.49,177.09,83Z"/><path class="cls-1" d="M234.51,97.23l-7.19,3-6.5-6.55L207.5,99.23l.08,9.23-7.19,3L199.88,72l7-2.91ZM215.3,88.08l-7.71-7.87-.18,11.16Z"/><path class="cls-1" d="M265.3,82.63a15.47,15.47,0,0,1-4.43,7.42,16.28,16.28,0,0,1-7.16,3.47q-7.38,1.68-12.62-2.71a21.64,21.64,0,0,1-7-12.25q-1.87-8.22,1.34-14.26a14.63,14.63,0,0,1,10.21-7.62,15.52,15.52,0,0,1,8.21.28,14,14,0,0,1,6.65,4.44L255,66.22a7.88,7.88,0,0,0-8-2.42,7.35,7.35,0,0,0-5.38,4.43c-1,2.38-1.18,5.28-.39,8.72s2.17,6.1,4.14,7.79a7.35,7.35,0,0,0,6.77,1.67,8,8,0,0,0,6.17-5.76Z"/><path class="cls-1" d="M298.18,58.22l-9.94.6L290,88.05l-7.06.43-1.76-29.23-10.05.6-.44-7.28,27.05-1.63Z"/><path class="cls-1" d="M337.69,75.81a17.08,17.08,0,0,1-2.8,8.08,13.81,13.81,0,0,1-5.73,4.69,14.16,14.16,0,0,1-7.5,1.21,14.71,14.71,0,0,1-10-5.38,13.47,13.47,0,0,1-3.38-10.47l2.48-22.78,7.14.77L315.5,74.45a6.79,6.79,0,0,0,1.74,5.33,7.61,7.61,0,0,0,5.1,2.75,6.84,6.84,0,0,0,6.84-3A9.5,9.5,0,0,0,330.6,75l2.33-21.48,7.09.77Z"/><path class="cls-1" d="M370.92,100.13,363.55,98l-1-14.5-9.21-2.65L349.58,94l-6.91-2,10.11-35.16,15.85,4.56a13.3,13.3,0,0,1,6,3.31,11,11,0,0,1,2.9,5.17,11.17,11.17,0,0,1-.1,5.88,11,11,0,0,1-7.72,7.92Zm-.41-26.34a3.79,3.79,0,0,0-.42-3.15,4.72,4.72,0,0,0-2.84-2l-9.58-2.75-2.3,8,9.57,2.75a4.72,4.72,0,0,0,3.49-.21A3.94,3.94,0,0,0,370.51,73.79Z"/><path class="cls-1" d="M385.12,106.4l-6.71-2.87L392.8,69.9l6.71,2.87Z"/><path class="cls-1" d="M418.27,124.33l-5.41-3.15-2-28.26-11.78,20.23-6.21-3.62,18.42-31.6,6.21,3.61,1.76,26.92,11.26-19.33,6.16,3.59Z"/><path class="cls-1" d="M458.2,133.61q-5.55,6.63-11.8,7.91t-11.67-3.27q-5.81-4.84-5.49-11.68a21.63,21.63,0,0,1,5.49-13q5.41-6.48,12.15-7.58a14.65,14.65,0,0,1,12.25,3.51,15.43,15.43,0,0,1,4.76,6.7,14.07,14.07,0,0,1,.5,8l-7.17-1.44a7.85,7.85,0,0,0-2.94-7.85,7.35,7.35,0,0,0-6.79-1.6,13.86,13.86,0,0,0-7.17,5c-2.3,2.75-3.53,5.43-3.68,8a7.57,7.57,0,0,0,2.82,6.51q3.87,3.09,7.6.75l-4.93-4.12,4.54-5.43Z"/><path class="cls-1" d="M499.8,173.72a11.77,11.77,0,0,1-6,2.22,10.58,10.58,0,0,1-6.2-1.47,13.87,13.87,0,0,1-4.49-4.35l-5.56-7.8-11.13,7.92-4.17-5.85L492,143.17l10,14a13.21,13.21,0,0,1,2.61,6.29,11.15,11.15,0,0,1-1,5.77A11.4,11.4,0,0,1,499.8,173.72Zm-4.13-5.81a3.77,3.77,0,0,0,1.61-2.76,4.77,4.77,0,0,0-1-3.38l-6.06-8.51-6.79,4.83,6.06,8.51a4.76,4.76,0,0,0,2.91,2.07A4,4,0,0,0,495.67,167.91Z"/><path class="cls-1" d="M495.31,220.39,492,213.48l10.16-10.39L498,194.45l-12.31,5.94-3.12-6.48L515.5,178l7.16,14.86a13.34,13.34,0,0,1,1.52,6.67,11,11,0,0,1-1.92,5.61A11.13,11.13,0,0,1,517.8,209a11,11,0,0,1-11-.48Zm19.37-17.85a3.78,3.78,0,0,0,2.07-2.42,4.66,4.66,0,0,0-.38-3.47l-4.32-9-7.5,3.62,4.32,9a4.69,4.69,0,0,0,2.48,2.46A4,4,0,0,0,514.68,202.54Z"/><path class="cls-1" d="M507.18,259.84l-2.12-7.49,7.28-5.68-3.92-13.88-9.18-1-2.12-7.49,39.2,4.19,2.06,7.28Zm11.38-18,8.74-6.72-11.07-1.51Z"/><path class="cls-1" d="M517.91,292.14a15.54,15.54,0,0,1-6.83-5.3,16.36,16.36,0,0,1-2.57-7.54q-.76-7.51,4.23-12.19a21.71,21.71,0,0,1,13-5.48q8.38-.86,14,3.07a14.67,14.67,0,0,1,6.32,11.06,15.5,15.5,0,0,1-1.29,8.12,13.88,13.88,0,0,1-5.21,6.06l-4.11-6a7.89,7.89,0,0,0,3.38-7.67,7.38,7.38,0,0,0-3.75-5.89,13.83,13.83,0,0,0-8.6-1.45c-3.57.36-6.32,1.42-8.24,3.16a7.35,7.35,0,0,0-2.48,6.52,8,8,0,0,0,5,6.83Z"/><path class="cls-1" d="M538.07,327.77l.63-9.94L509.48,316l.45-7.06,29.22,1.86.64-10,7.28.46-1.72,27.05Z"/><path class="cls-1" d="M505.86,341.3l1.35-7.17,35.95,6.76-1.35,7.17Z"/><path class="cls-1" d="M502.71,379.3a15.42,15.42,0,0,1-4.15-7.59,16.39,16.39,0,0,1,.65-7.93q2.3-7.21,8.75-9.49a21.62,21.62,0,0,1,14.11.16q8,2.58,11.61,8.4a14.64,14.64,0,0,1,1.38,12.67,15.5,15.5,0,0,1-4.42,6.93,13.94,13.94,0,0,1-7.19,3.47l-1.36-7.18a7.87,7.87,0,0,0,6.16-5.69,7.37,7.37,0,0,0-1.09-6.89,13.84,13.84,0,0,0-7.31-4.76q-5.13-1.63-8.81-.39a7.36,7.36,0,0,0-4.88,5,8,8,0,0,0,1.82,8.24Z"/><path class="cls-1" d="M481,406.8l12.25-24.18,32.63,16.53-12,23.74-6.5-3.29,8.78-17.34-5.34-2.7-5,9.81-6.51-3.3,5-9.81-7.77-3.94-9,17.78Z"/><polygon class="cls-1" points="474.57 472.28 487.49 476.87 487.11 463.17 495.47 452.31 482.32 448.43 474.57 437.13 466.83 448.43 453.68 452.31 462.04 463.17 461.66 476.87 474.57 472.28"/><polygon class="cls-1" points="123.04 472.28 135.95 476.87 135.57 463.17 143.93 452.31 130.79 448.43 123.04 437.13 115.29 448.43 102.14 452.31 110.5 463.17 110.12 476.87 123.04 472.28"/><path class="cls-1" d="M225.21,299.52q0,25.17-11.56,39.67t-32.14,14.49q-22,0-34-15.84t-12-39.27q0-24.54,13-39.59t33.89-15a45,45,0,0,1,23.12,6.1,40.61,40.61,0,0,1,16,16.86L202.73,277q-7-12-21.22-12a21.39,21.39,0,0,0-18.13,9.11q-6.74,9.11-6.73,24.46,0,15.68,6.73,24.78t18.45,9.26q14.4-.3,18.36-12.51H181.51V299.52Z"/><path class="cls-1" d="M348.57,351.78h-20.9V294.14l-28.19,57.64-29-57.64v57.64H249.6V245.36h20.9l29,58.44,28.19-58.44h20.9Z"/><path class="cls-1" d="M462.26,278.46a34.08,34.08,0,0,1-4.91,18.05,30.72,30.72,0,0,1-13.93,12.19q-6.65,3.33-17.9,3.33H397.66v39.75H376.75V245.36h49.88q11.72,0,19.32,4.44a32.19,32.19,0,0,1,12,12.11A33,33,0,0,1,462.26,278.46Zm-20.74,0a10.92,10.92,0,0,0-3.8-8.47,14,14,0,0,0-9.66-3.41h-30.4v24.23h30.4q6.18,0,9.82-3.4A11.7,11.7,0,0,0,441.52,278.46Z"/><path class="cls-1" d="M184.41,518a15.45,15.45,0,0,1-8.29,2.18,15.9,15.9,0,0,1-7.4-2.55q-6.27-4-6.8-10.73a21.92,21.92,0,0,1,3.76-13.58q4.51-7.14,11-9.17a14.26,14.26,0,0,1,12.43,1.72,15,15,0,0,1,5.47,5.93,13.89,13.89,0,0,1,1.48,7.79l-7.2-.42a7.7,7.7,0,0,0-3.84-7.32,7.16,7.16,0,0,0-6.84-.61q-3.6,1.43-6.41,5.9c-1.92,3-2.79,5.84-2.63,8.41a7.16,7.16,0,0,0,3.51,5.91,7.82,7.82,0,0,0,8.32.23Z"/><path class="cls-1" d="M215.4,540.06l-24.48-10.41L205.23,496l24,10.21-2.86,6.71-17.55-7.45L206.52,511l9.93,4.22-2.85,6.71-9.93-4.22-3.41,8,18,7.64Z"/><path class="cls-1" d="M255.27,550.87,248,549.1l-1.51-14.42-9.14-2.22-3.21,13.28-6.85-1.66,8.61-35.55,15.73,3.81a13,13,0,0,1,6,3,11,11,0,0,1,3,5,11.42,11.42,0,0,1,.11,5.89,11,11,0,0,1-7.27,8.26Zm-1.39-26.26a3.83,3.83,0,0,0-.53-3.13,4.55,4.55,0,0,0-2.87-1.9l-9.5-2.3-2,8.09,9.5,2.3a4.57,4.57,0,0,0,3.42-.37A4,4,0,0,0,253.88,524.61Z"/><path class="cls-1" d="M296.19,525.37l-9.75-.69-2.07,29.21-6.93-.49,2.08-29.22-9.86-.7.51-7.27,26.54,1.88Z"/><path class="cls-1" d="M313.87,553.74l-7.15.37-1.88-36.53,7.15-.37Z"/><path class="cls-1" d="M347.67,519.5l-19.26,3.35,1.12,6.44,11.37-2,1.25,7.18-11.37,2,2.65,15.23-6.94,1.21-6.28-36,26.21-4.57Z"/><path class="cls-1" d="M371.56,542.86l-6.86,2-10.5-35,6.85-2.06Z"/><path class="cls-1" d="M407.92,528.57l-24.43,10.54L369,505.52l24-10.34,2.89,6.7-17.51,7.55,2.37,5.5,9.91-4.28,2.89,6.7-9.91,4.27,3.45,8L405,521.88Z"/><path class="cls-1" d="M433.25,492.1q4.46,7,3,13.83T428.11,517l-9.42,6-19.6-30.89,9.43-6q6.81-4.32,13.56-2.66T433.25,492.1Zm-5.91,3.75q-2.77-4.37-6.65-5.36a9.94,9.94,0,0,0-7.94,1.59L409,494.49l11.77,18.57,3.79-2.41a9.88,9.88,0,0,0,4.83-6.5Q430.12,500.22,427.34,495.85Z"/></g></g></svg>