<svg xmlns="http://www.w3.org/2000/svg" viewBox="0 0 300.000000 150.000000"><defs><style>.cls-1{fill:#231f20;}</style></defs><title>icon_fssai</title><g class="cls-1" transform="translate(0.000000,150.000000) scale(0.100000,-0.100000)" stroke="none"><path d="M2856 1448 c-14 -24 -55 -74 -91 -113 -76 -81 -105 -135 -105 -192 0 -48 -8 -56 -79 -77 -48 -14 -162 -16 -1004 -16 l-949 0 7 50 c18 129 53 201 119 241 38 23 103 25 153 4 l37 -16 46 47 45 46 -110 -4 c-93 -4 -119 -9 -165 -31 -110 -52 -199 -157 -235 -277 l-18 -60 -79 0 -78 0 0 -30 0 -30 69 0 c39 0 72 -3 74 -7 3 -5 -24 -170 -59 -368 -71 -396 -87 -448 -154 -494 -32 -21 -42 -23 -121 -18 l-86 6 -32 -33 c-51 -53 -44 -60 56 -53 125 8 176 28 249 101 108 108 152 230 225 626 22 124 43 228 46 233 2 4 534 7 1182 7 l1178 0 11 25 c7 14 12 28 12 30 0 3 -89 6 -197 7 l-198 3 38 23 c21 12 48 22 60 22 53 0 123 70 153 151 14 41 38 228 30 236 -2 2 -15 -15 -30 -39z"/><path d="M2542 1188 c-37 -37 12 -113 57 -88 35 18 45 48 26 76 -17 26 -62 33 -83 12z"/><path d="M2660 876 c-141 -45 -165 -56 -168 -74 -4 -25 2 -26 64 -11 37 10 48 9 69 -5 31 -21 31 -27 -5 -216 -59 -310 -64 -347 -51 -390 13 -45 50 -70 103 -70 76 0 238 107 238 157 l0 25 -36 -32 c-46 -40 -117 -75 -138 -67 -32 13 -28 58 38 390 36 182 66 335 66 340 0 10 2 11 -180 -47z"/><path d="M866 845 c-115 -44 -172 -146 -132 -238 8 -18 45 -66 81 -106 98 -108 111 -154 62 -208 -29 -32 -104 -31 -176 2 l-54 25 -33 -37 c-18 -21 -33 -41 -34 -44 0 -14 96 -32 166 -32 123 1 217 60 245 153 18 59 -1 107 -78 202 -114 142 -122 166 -74 220 25 28 35 32 79 32 62 0 102 -30 102 -76 0 -23 4 -29 18 -26 24 4 52 112 34 130 -19 19 -159 21 -206 3z"/><path d="M1396 846 c-84 -31 -146 -107 -146 -179 0 -50 9 -65 98 -170 66 -77 76 -93 80 -136 4 -43 1 -50 -23 -69 -38 -30 -105 -29 -174 3 l-54 26 -34 -33 c-18 -17 -33 -37 -33 -44 0 -18 85 -37 165 -37 159 1 278 112 245 231 -6 23 -43 79 -90 137 -84 104 -102 146 -81 191 15 34 73 57 122 49 44 -8 79 -44 79 -82 0 -18 5 -24 17 -21 23 4 51 114 34 131 -18 18 -159 20 -205 3z"/><path d="M2057 839 c-210 -49 -398 -327 -356 -527 31 -149 152 -150 299 -2 36 36 83 93 104 128 22 34 41 61 42 59 2 -2 -5 -48 -16 -103 -21 -109 -19 -136 14 -173 18 -20 27 -22 70 -17 56 6 128 49 180 107 30 32 47 69 33 69 -2 0 -24 -18 -48 -41 -83 -77 -142 -90 -146 -34 -2 17 21 143 50 280 30 138 52 253 50 258 -6 10 -229 7 -276 -4z m122 -71 c21 -8 23 -12 16 -56 -16 -111 -183 -352 -277 -400 -46 -24 -49 -24 -74 -7 -26 17 -27 19 -22 99 6 93 40 201 90 282 35 59 65 83 113 94 34 8 118 2 154 -12z"/><path d="M280 50 c-28 -18 -95 -32 -190 -40 -52 -4 529 -8 1291 -9 l1386 -1 11 25 c7 14 12 28 12 30 0 10 -2495 5 -2510 -5z"/></g></svg>