<svg xmlns="http://www.w3.org/2000/svg" viewBox="0 0 289.95 289.95"><defs><style>.cls-1,.cls-2{fill:none;}.cls-1,.cls-2,.cls-3,.cls-4,.cls-5{stroke:#231f20;stroke-miterlimit:10;}.cls-1{stroke-width:5px;}.cls-3,.cls-4,.cls-5{fill:#231f20;}.cls-3{stroke-width:0.5px;}.cls-4{stroke-width:3px;}.cls-5{stroke-width:2px;}</style></defs><title>icon_iso_9001</title><g id="Layer_2" data-name="Layer 2"><g id="Layer_1-2" data-name="Layer 1"><circle class="cls-1" cx="144.98" cy="144.97" r="142.48"/><circle class="cls-2" cx="144.98" cy="144.97" r="112.25"/><path class="cls-3" d="M68.2,186.56a1.89,1.89,0,0,1,1.88-1.88H219.87a1.89,1.89,0,0,1,0,3.77H70.08A1.89,1.89,0,0,1,68.2,186.56Z"/><path class="cls-3" d="M219.87,101.5H70.08a1.89,1.89,0,0,0,0,3.77H219.87a1.89,1.89,0,0,0,0-3.77Z"/><polygon class="cls-4" points="147.41 75.47 144.41 67.6 141.41 75.47 133 75.89 139.56 81.17 137.36 89.3 144.41 84.69 151.46 89.3 149.26 81.17 155.82 75.89 147.41 75.47"/><polygon class="cls-4" points="184.48 78.9 182.11 72.67 179.74 78.9 173.08 79.23 178.27 83.41 176.53 89.85 182.11 86.2 187.69 89.85 185.95 83.41 191.14 79.23 184.48 78.9"/><polygon class="cls-4" points="109.08 78.9 106.71 72.67 104.34 78.9 97.68 79.23 102.87 83.41 101.13 89.85 106.71 86.2 112.29 89.85 110.55 83.41 115.74 79.23 109.08 78.9"/><polygon class="cls-4" points="147.41 208.52 144.41 200.65 141.41 208.52 133 208.94 139.56 214.22 137.36 222.35 144.41 217.74 151.46 222.35 149.26 214.22 155.82 208.94 147.41 208.52"/><polygon class="cls-4" points="184.48 206.33 182.11 200.1 179.74 206.33 173.08 206.66 178.27 210.84 176.53 217.28 182.11 213.63 187.69 217.28 185.95 210.84 191.14 206.66 184.48 206.33"/><polygon class="cls-4" points="109.08 206.33 106.71 200.1 104.34 206.33 97.68 206.66 102.87 210.84 101.13 217.28 106.71 213.63 112.29 217.28 110.55 210.84 115.74 206.66 109.08 206.33"/><path class="cls-3" d="M145,263.6A118.63,118.63,0,1,1,263.6,145,118.77,118.77,0,0,1,145,263.6ZM145,34A111,111,0,1,0,256,145,111.14,111.14,0,0,0,145,34Z"/><path class="cls-5" d="M49.82,129.29H56.9V161H49.82Z"/><path class="cls-5" d="M72.13,135.62a2.74,2.74,0,0,0-1,2.23,2.52,2.52,0,0,0,1.24,2.2A23.16,23.16,0,0,0,78.12,142a16.1,16.1,0,0,1,7,3.34q2.5,2.22,2.5,6.49a8.58,8.58,0,0,1-3.2,6.92A12.75,12.75,0,0,1,76,161.39a19.48,19.48,0,0,1-13.58-5.59l4.23-5.17q5.13,4.49,9.49,4.49a5,5,0,0,0,3.06-.84A2.69,2.69,0,0,0,80.32,152a2.64,2.64,0,0,0-1.18-2.27,15.35,15.35,0,0,0-4.68-1.7q-5.53-1.32-8.1-3.43T63.8,138A8.2,8.2,0,0,1,67,131a13.06,13.06,0,0,1,8.11-2.46,19.67,19.67,0,0,1,6.35,1.09A17.08,17.08,0,0,1,87,132.74l-3.59,5.18a14,14,0,0,0-8.53-3.14A4.26,4.26,0,0,0,72.13,135.62Z"/><path class="cls-5" d="M120.36,156.64a17.29,17.29,0,0,1-23.7,0,16.61,16.61,0,0,1,0-23.38,17.29,17.29,0,0,1,23.7,0,16.61,16.61,0,0,1,0,23.38ZM118,145a10.39,10.39,0,0,0-2.73-7.24,9,9,0,0,0-13.39,0A10.38,10.38,0,0,0,99.12,145a10.26,10.26,0,0,0,2.72,7.22,9,9,0,0,0,13.39,0A10.27,10.27,0,0,0,118,145Z"/><path class="cls-5" d="M148.41,155.3a5.56,5.56,0,0,0,4.56-2,10,10,0,0,0,2-5.38,11.05,11.05,0,0,1-6.27,2,10.15,10.15,0,0,1-7.42-2.93,10.38,10.38,0,0,1-3-7.74,10,10,0,0,1,3.2-7.74,11.48,11.48,0,0,1,8-2.93,12.46,12.46,0,0,1,5.84,1.3,9.65,9.65,0,0,1,3.88,3.61,21.72,21.72,0,0,1,2.68,11.26,24.81,24.81,0,0,1-1.07,7.64,13.36,13.36,0,0,1-2.88,5.2,12.13,12.13,0,0,1-9,3.82,13.75,13.75,0,0,1-4.26-.66,14.08,14.08,0,0,1-3.09-1.32c-.7-.44-1.5-1-2.41-1.7l3.54-5,.84.71a11.93,11.93,0,0,0,2,1.16A6.54,6.54,0,0,0,148.41,155.3Zm1-11.44a5.22,5.22,0,0,0,3.52-1.22,4.09,4.09,0,0,0,1.4-3.23A4.87,4.87,0,0,0,153,136a4.6,4.6,0,0,0-8,3.14,5.06,5.06,0,0,0,1.18,3.38A4.12,4.12,0,0,0,149.39,143.86Z"/><path class="cls-5" d="M180.14,161.39q-6.58,0-9.85-4.48T167,145q0-7.46,3.27-11.93t9.85-4.48q6.59,0,9.85,4.48T193.26,145q0,7.47-3.27,11.94T180.14,161.39Zm-4.67-24.06a20.36,20.36,0,0,0,0,15.34,5.22,5.22,0,0,0,9.35,0,16.78,16.78,0,0,0,1.49-7.67,16.75,16.75,0,0,0-1.49-7.67,5.21,5.21,0,0,0-9.35,0Z"/><path class="cls-5" d="M211.46,161.39q-6.59,0-9.85-4.48T198.34,145q0-7.46,3.27-11.93t9.85-4.48q6.58,0,9.85,4.48T224.58,145q0,7.47-3.27,11.94T211.46,161.39Zm-4.67-24.06a20.36,20.36,0,0,0,0,15.34,5.22,5.22,0,0,0,9.35,0,20.36,20.36,0,0,0,0-15.34,5.21,5.21,0,0,0-9.35,0Z"/><path class="cls-5" d="M228.74,129.29h11.4V161h-6.81V135.33h-4.59Z"/></g></g></svg>