<svg xmlns="http://www.w3.org/2000/svg" viewBox="0 0 65.71 65.71"><defs><style>.cls-1{fill:#fff;}</style></defs><title>icon_sun</title><g id="Layer_2" data-name="Layer 2"><g id="_1" data-name=" 1"><path class="cls-1" d="M37.62,10.75,32.86,0,28.09,10.75a22.52,22.52,0,0,1,9.53,0Z"/><path class="cls-1" d="M25.93,11.33,16.43,4.4l1.25,11.71A22.58,22.58,0,0,1,25.93,11.33Z"/><path class="cls-1" d="M16.11,17.68,4.4,16.43l6.93,9.5A22.58,22.58,0,0,1,16.11,17.68Z"/><path class="cls-1" d="M10.24,32.86a22.71,22.71,0,0,1,.51-4.77L0,32.86l10.75,4.76A22.61,22.61,0,0,1,10.24,32.86Z"/><path class="cls-1" d="M4.4,49.29,16.11,48a22.62,22.62,0,0,1-4.78-8.26Z"/><path class="cls-1" d="M16.43,61.31l9.5-6.93a22.56,22.56,0,0,1-8.25-4.77Z"/><path class="cls-1" d="M28.09,55l4.77,10.75L37.62,55a22.52,22.52,0,0,1-9.53,0Z"/><path class="cls-1" d="M39.78,54.38l9.51,6.93L48,49.61A22.6,22.6,0,0,1,39.78,54.38Z"/><path class="cls-1" d="M49.61,48l11.7,1.25-6.93-9.51A22.46,22.46,0,0,1,49.61,48Z"/><path class="cls-1" d="M65.71,32.86,55,28.09a22.71,22.71,0,0,1,.51,4.77,23.29,23.29,0,0,1-.5,4.76Z"/><path class="cls-1" d="M61.31,16.43l-11.7,1.25a22.42,22.42,0,0,1,4.77,8.25Z"/><path class="cls-1" d="M49.29,4.4l-9.51,6.93A22.62,22.62,0,0,1,48,16.11Z"/><path class="cls-1" d="M46.62,44.1a17.92,17.92,0,0,0,2.86-5,17.09,17.09,0,0,0,.92-3.44,17.83,17.83,0,0,0,0-5.71,17.27,17.27,0,0,0-.92-3.44,17.92,17.92,0,0,0-2.86-4.95,18.19,18.19,0,0,0-2.52-2.52,17.65,17.65,0,0,0-5-2.85,17.53,17.53,0,0,0-6.29-1.16,16.81,16.81,0,0,0-2.86.24,17.27,17.27,0,0,0-3.44.92,17.65,17.65,0,0,0-4.95,2.85,18.75,18.75,0,0,0-2.52,2.52,17.65,17.65,0,0,0-2.85,4.95A17.27,17.27,0,0,0,15.32,30a17.71,17.71,0,0,0,3.77,14.1,18.19,18.19,0,0,0,2.52,2.52,17.92,17.92,0,0,0,4.95,2.86A17.27,17.27,0,0,0,30,50.4a17.83,17.83,0,0,0,5.71,0,17.09,17.09,0,0,0,3.44-.92,17.92,17.92,0,0,0,5-2.86A17.65,17.65,0,0,0,46.62,44.1Z"/></g></g></svg>