<svg xmlns="http://www.w3.org/2000/svg" viewBox="0 0 575 575"><defs><style>.cls-1{fill:#56a5a9;}</style></defs><title>money_back_guarantee</title><g id="Layer_2" data-name="Layer 2"><g id="Layer_1-2" data-name="Layer 1"><path class="cls-1" d="M287.5,0C128.72,0,0,128.72,0,287.5S128.72,575,287.5,575,575,446.28,575,287.5,446.28,0,287.5,0Zm0,562.43c-151.84,0-274.93-123.09-274.93-274.93S135.66,12.57,287.5,12.57,562.43,135.66,562.43,287.5,439.34,562.43,287.5,562.43Z"/><circle class="cls-1" cx="49.88" cy="287.5" r="13.09"/><circle class="cls-1" cx="525.12" cy="287.5" r="13.09"/><path class="cls-1" d="M335.93,93.19c-107.3-26.75-216,38.55-242.74,145.88s38.55,216,145.84,242.74,216-38.54,242.78-145.86S443.26,119.94,335.93,93.19ZM467.84,332.47C443,432.07,342.12,492.67,242.51,467.84S82.32,342.13,107.16,242.55,232.87,82.33,332.45,107.16,492.67,232.88,467.84,332.47Z"/><path class="cls-1" d="M85.63,208.79,82,219.47l-20.62-7q-3.75-1.28-6.81-2.49a24,24,0,0,1,1.67,3.3l2.15,5.66-8.57,3.18-6.35-17.07,3.22-9.48Z"/><path class="cls-1" d="M85.33,163.05Q95,168.2,97.72,173.8t-.79,12.27q-3.47,6.51-9.91,7.31t-15.67-4.12q-9.67-5.16-12.47-10.8t.75-12.29q3.45-6.46,9.92-7.28T85.33,163.05Zm-8.78,16.46c4.11,2.18,7.06,3.43,8.88,3.74s3-.14,3.68-1.35.32-2.51-1-3.86-4-3.1-8-5.23-7-3.4-8.86-3.74-3.15.08-3.8,1.29-.32,2.48,1,3.82S72.42,177.3,76.55,179.51Z"/><path class="cls-1" d="M108.06,132.1q8.68,6.63,10.5,12.61t-2.76,12q-4.47,5.87-11,5.62t-14.8-6.59q-8.73-6.66-10.58-12.67t2.73-12q4.44-5.85,11-5.59T108.06,132.1ZM96.75,146.93q5.55,4.23,8.15,5.13c1.74.59,3,.35,3.86-.74s.72-2.43-.36-4-3.43-3.69-7-6.45-6.34-4.47-8.14-5.11-3.13-.43-4,.66-.72,2.4.33,3.93S93,144.09,96.75,146.93Z"/><path class="cls-1" d="M123.1,105.43q4.05,4.68,4.17,9.06a9.69,9.69,0,0,1-3.77,7.76,9.35,9.35,0,0,1-8.09,2.37q-4.43-.8-8.33-5.3-4.06-4.68-4.16-9a9.45,9.45,0,0,1,3.66-7.58,9.67,9.67,0,0,1,8.18-2.51Q119.22,100.95,123.1,105.43Zm-9.55,8.43A14.49,14.49,0,0,0,117,117a1.77,1.77,0,0,0,2.15,0,1.75,1.75,0,0,0,.28-2.1,15,15,0,0,0-2.68-3.89,15.22,15.22,0,0,0-3.46-3.19,1.61,1.61,0,0,0-2.4,2.12A15,15,0,0,0,113.55,113.86Zm17-31.13,9.7,46L134,134.22l-9.7-46Zm26.9,14.58q4,4.65,4.14,9a9.71,9.71,0,0,1-3.77,7.75,9.32,9.32,0,0,1-8.08,2.37q-4.42-.8-8.32-5.28-4.05-4.67-4.15-9a9.45,9.45,0,0,1,3.66-7.58,9.65,9.65,0,0,1,8.17-2.51Q153.57,92.83,157.46,97.31Zm-9.56,8.43a14.69,14.69,0,0,0,3.46,3.18,1.79,1.79,0,0,0,2.16,0c.6-.52.67-1.3.18-2.34a21.61,21.61,0,0,0-5.84-6.73q-1.43-.94-2.34-.15a1.77,1.77,0,0,0-.26,2.16A14.61,14.61,0,0,0,147.9,105.74Z"/><path class="cls-1" d="M202.29,88.44,183.51,64l-.23.1q3.34,6.81,4.9,10.7l6.62,16.59-9.15,3.65-15.23-38.2,13.74-5.48L203,75.34l.2-.08-3-30.24,13.77-5.49,15.23,38.2-9.48,3.78L213,64.77c-.35-.88-.72-1.85-1.12-2.92s-1.32-3.72-2.76-8l-.23.09,3.24,30.53Z"/><path class="cls-1" d="M272.94,50.08q1.49,10.28-2.77,16.35t-14,7.49q-9.57,1.38-15.46-3.25t-7.38-14.9q-1.47-10.16,2.83-16.26t14-7.5q9.71-1.39,15.49,3.19T272.94,50.08Zm-28,4.07q1.71,11.79,9.92,10.61A7.16,7.16,0,0,0,260.64,61q1.61-3.15.72-9.23T258,43.06a7,7,0,0,0-6.53-2Q243.22,42.23,244.94,54.15Z"/><path class="cls-1" d="M322.71,73.06l-14.53-1-12.92-30L295,42q0,6.86-.21,10.45L293.48,71l-9.82-.71,2.93-41,14.48,1L314,59.85l.17,0q0-6.24.32-10l1.33-18.55,9.87.71Z"/><path class="cls-1" d="M355.75,81.66l-23.6-6.26,10.54-39.75,23.6,6.26L364,50.53l-12.86-3.41-1.66,6.25,11.91,3.16-2.28,8.62L347.2,62l-2,7.5,12.86,3.41Z"/><path class="cls-1" d="M387.8,66.89,400.56,56l11,5-22.7,17.2-6.65,14.61L372,88.13l6.51-14.31-1.78-28.73,11,5Z"/><path class="cls-1" d="M440.17,79.55l11,9.16q6.46,5.34,8,9.85a8.45,8.45,0,0,1-1.81,8.56,9.82,9.82,0,0,1-5.14,3.42,7.91,7.91,0,0,1-5.6-.55l-.18.21a9.57,9.57,0,0,1,2.11,6.14,10.14,10.14,0,0,1-2.59,5.82,10.48,10.48,0,0,1-8.86,4.1q-5.29-.2-10.88-4.83l-12.33-10.21Zm-6.7,25.5L428,111.7l3,2.5q4,3.31,6.81-.06a3.82,3.82,0,0,0,.94-3.32,6.5,6.5,0,0,0-2.41-3.42Zm5.19-6.26,2.57,2.14a6,6,0,0,0,3.48,1.6,3.41,3.41,0,0,0,2.87-1.42q2.21-2.65-1.82-6l-2.4-2Z"/><path class="cls-1" d="M460,156.52l4.65-6.47-8.51-10.3-7.27,3.3-7.77-9.41,40.37-15.95,9.44,11.42-23.17,36.78Zm10.21-14.05,4.07-5.67c.89-1.27,2.07-2.9,3.53-4.87s2.53-3.36,3.2-4.16q-1.26.72-4.28,2.24t-12.1,5.71Z"/><path class="cls-1" d="M507.61,170.92a7.07,7.07,0,0,0-5.83-3.85q-3.91-.37-8.92,2.38-10.39,5.75-6,13.64a18.57,18.57,0,0,0,3.22,4.27q1.9,1.86,4.09,3.62l-8.23,4.54a28.61,28.61,0,0,1-7.62-9.1q-4.5-8.14-2.17-15.1t11.27-11.89a25,25,0,0,1,11-3.32,17.32,17.32,0,0,1,9.86,2.46,21,21,0,0,1,7.41,8,29.42,29.42,0,0,1,3.62,12.56L510,180.42a39.32,39.32,0,0,0-.62-4.86A15.81,15.81,0,0,0,507.61,170.92Z"/><path class="cls-1" d="M499.12,237.85l-4-11.91,12.35-12.68-2.91-2.5-13,4.35L488,204.52l39-13,3.53,10.6-16.95,5.64a48.31,48.31,0,0,1,6.07,1.57l14.68,4.21,3.84,11.53-21.57-6.48Z"/><path class="cls-1" d="M41.78,365.4l-3-10.88,21-5.78q3.83-1.07,7.05-1.77a24.61,24.61,0,0,1-3.24-1.79l-5-3.48,5.3-7.44,14.85,10.55,2.66,9.65Z"/><path class="cls-1" d="M80.6,404.19q-9.81,4.76-16,3.69T55.17,400q-3.22-6.63-.08-12.31t12.55-10.25q9.87-4.79,16.07-3.73t9.49,7.84q3.21,6.6,0,12.31T80.6,404.19Zm-8.13-16.78q-6.28,3-8.25,5t-1.08,3.77c.6,1.25,1.84,1.74,3.71,1.47s4.85-1.4,8.93-3.38,6.84-3.64,8.24-5,1.78-2.6,1.19-3.83-1.82-1.73-3.66-1.48S76.68,385.36,72.47,387.41Z"/><path class="cls-1" d="M105.08,439.57q-8.81,6.45-15,6.51t-10.72-6Q74.95,434.12,77,428t10.5-12.35q8.83-6.48,15.13-6.57t10.75,6q4.33,5.91,2.27,12.1T105.08,439.57Zm-11-15q-5.62,4.13-7.22,6.37c-1.06,1.5-1.19,2.81-.38,3.91s2.13,1.38,3.92.77,4.51-2.25,8.17-4.93,6.07-4.82,7.2-6.37,1.29-2.88.48-4-2.09-1.37-3.86-.8S97.82,421.76,94.05,424.54Z"/><path class="cls-1" d="M157.59,461.27l-44.17,16.16L107.11,472l44.16-16.15Zm-23.53-4.15q-4,4.68-8.38,5.42a9.67,9.67,0,0,1-8.21-2.63,9.29,9.29,0,0,1-3.5-7.66q.15-4.5,4.06-9,4.05-4.68,8.31-5.39a9.47,9.47,0,0,1,8,2.54,9.69,9.69,0,0,1,3.65,7.74Q137.95,452.63,134.06,457.12Zm-9.71-8.25a14.64,14.64,0,0,0-2.65,3.88,1.61,1.61,0,0,0,2.4,2.11,21.56,21.56,0,0,0,6.13-7.08,1.77,1.77,0,0,0-.27-2.13,1.79,1.79,0,0,0-2.18.05A15.15,15.15,0,0,0,124.35,448.87ZM147,490q-4,4.66-8.37,5.39a9.68,9.68,0,0,1-8.2-2.62,9.3,9.3,0,0,1-3.5-7.66q.15-4.5,4-9,4-4.68,8.31-5.39a9.47,9.47,0,0,1,8,2.54A9.69,9.69,0,0,1,151,481Q150.88,485.48,147,490Zm-9.71-8.25a14.64,14.64,0,0,0-2.65,3.88,1.77,1.77,0,0,0,.27,2.13q.91.79,2.34-.15a16.58,16.58,0,0,0,3.27-3.06,17,17,0,0,0,2.57-3.68c.49-1,.42-1.81-.19-2.34s-1.28-.46-2.18.05A15.15,15.15,0,0,0,137.28,481.72Z"/><path class="cls-1" d="M203.36,505.33l16.57,6.37-8,20.69a48.62,48.62,0,0,1-15.72-3.4q-8.88-3.4-11.74-10.42t.8-16.54q3.58-9.28,10.87-12.42t16.85.54a35.53,35.53,0,0,1,6.58,3.32,30.71,30.71,0,0,1,4.93,3.89l-6.41,6.87a21.67,21.67,0,0,0-8.32-5.55,9.31,9.31,0,0,0-8.16.25q-3.61,2-5.73,7.49c-1.38,3.58-1.68,6.61-.91,9.06a8.32,8.32,0,0,0,5.39,5.31,20.46,20.46,0,0,0,4.42,1.2l2.32-6-6.86-2.63Z"/><path class="cls-1" d="M273.37,504.17l-3.58,24.49q-1.16,8-6.32,11.71t-13.68,2.48q-8.32-1.22-12.17-6.12t-2.68-12.9l3.61-24.74,11,1.61-3.49,23.88c-.41,2.88-.18,5,.71,6.5a5.88,5.88,0,0,0,4.47,2.64q3.38.49,5.17-1.22t2.44-6.11l3.47-23.83Z"/><path class="cls-1" d="M315,543.73l-2.58-7.54-13.32.95L297.54,545l-12.18.88,10.42-42.15,14.78-1.06,16.52,40.21Zm-5.53-16.47-2.25-6.6q-.78-2.2-1.92-5.7c-.76-2.34-1.27-4-1.53-5-.1,1-.32,2.56-.66,4.79s-1.13,6.61-2.36,13.17Z"/><path class="cls-1" d="M351.29,521.62,355.45,536l-10.67,3.09-11.44-39.5,12.94-3.74q16.11-4.66,19.49,7,2,6.86-3.63,12.56l16.49,13.87-12.11,3.51L354,520.84Zm-2.33-8,2-.58q5.6-1.62,4.17-6.57c-.79-2.71-3-3.55-6.67-2.49l-2.11.61Z"/><path class="cls-1" d="M416.83,510.42l-5.43-5.84-11.77,6.32,1.81,7.77-10.76,5.78L383,481.72l13.06-7,31.5,30Zm-11.77-12.78-4.75-5.11c-1.08-1.12-2.44-2.6-4.08-4.42s-2.8-3.13-3.45-3.95c.3.92.75,2.46,1.35,4.63s1.68,6.5,3.22,13Z"/><path class="cls-1" d="M472.06,468.16l-10.95,9.62-30.4-11.86-.19.16q4.91,4.79,7.29,7.49L450,487.5l-7.4,6.5-27.13-30.9,10.9-9.58,30.1,11.6.13-.11q-4.39-4.41-6.88-7.24l-12.27-14,7.44-6.54Z"/><path class="cls-1" d="M497.61,436.54,491,445.46l-25.71-19.12-6,8.06L452,429l18.59-25,7.3,5.42-6,8Z"/><path class="cls-1" d="M524,390.46,513.1,412.31,476.28,394l10.89-21.85,8,4L489.22,388,495,390.9l5.49-11,8,4-5.49,11,6.95,3.46,5.93-11.91Z"/><path class="cls-1" d="M538.13,348.39l-7,23.4-39.42-11.7,6.94-23.41,8.55,2.54L503.47,352l6.2,1.84,3.5-11.8,8.55,2.53-3.51,11.81,7.45,2.21,3.78-12.75Z"/><path class="cls-1" d="M281.63,244.36q0,37.61-16.22,54.44t-51.9,16.83a137.11,137.11,0,0,1-17.88-.87V287.32a82.65,82.65,0,0,0,15.08,1.4q18.58,0,28.66-7.67t11-24.24h-1.05q-3.42,6.31-6.75,9.12a23,23,0,0,1-8.15,4.29,41.07,41.07,0,0,1-12,1.49q-16.67,0-26-11.13T187,229.9q0-21.3,12.14-33.4t33.27-12.1q23.49,0,36.38,15.6T281.63,244.36ZM233.32,212.1a11.62,11.62,0,0,0-9.24,4.12q-3.56,4.13-3.55,13.24,0,7.18,3.06,11.44t9.38,4.25a13.7,13.7,0,0,0,9.91-4.12,13.4,13.4,0,0,0,4.21-9.91,22.9,22.9,0,0,0-3.9-13.41Q239.29,212.1,233.32,212.1Z"/><path class="cls-1" d="M386.38,250q0,34-11.39,49.84T340.1,315.63q-23,0-34.63-16.52T293.81,250q0-34.18,11.4-50.14t34.89-16q22.88,0,34.58,16.62T386.38,250Zm-58.12,0q0,21.75,2.72,29.89T340.1,288q6.48,0,9.16-8.42T351.93,250q0-21.3-2.72-29.85t-9.11-8.54q-6.41,0-9.12,8.24T328.26,250Z"/><path class="cls-1" d="M235.87,357.74q0,13.81-7.61,21.3t-21.4,7.48H189V331.3H208.1q13.31,0,20.53,6.8T235.87,357.74Zm-15.49.53q0-7.61-3-11.26t-9.12-3.66h-4.35v30.93h3.33q6.8,0,10-3.95T220.38,358.27Z"/><path class="cls-1" d="M279.64,386.52l-2.71-10.35H259l-2.79,10.35H239.8l18-55.45h19.91L296,386.52Zm-5.81-22.59-2.38-9.06c-.56-2-1.23-4.62-2-7.82s-1.32-5.49-1.57-6.88c-.23,1.29-.67,3.4-1.34,6.35s-2.15,8.75-4.44,17.41Z"/><path class="cls-1" d="M321.65,351.77l9.52-20.47h16.16L329.16,365v21.57h-15V365.4L296,331.3H312.2Z"/><path class="cls-1" d="M389.41,369.75a16.29,16.29,0,0,1-2.61,9.12,17.06,17.06,0,0,1-7.51,6.2,28,28,0,0,1-11.52,2.2,46.45,46.45,0,0,1-9.26-.77,34.89,34.89,0,0,1-7.78-2.7V370.5a44.76,44.76,0,0,0,8.88,3.42,33,33,0,0,0,8.46,1.23,8.2,8.2,0,0,0,4.87-1.15,3.56,3.56,0,0,0,1.55-3,3.31,3.31,0,0,0-.62-2,7.41,7.41,0,0,0-2-1.72q-1.38-.87-7.35-3.55a35.21,35.21,0,0,1-8.1-4.76,14.6,14.6,0,0,1-4-5.29,17.52,17.52,0,0,1-1.3-7.06q0-7.64,5.55-11.9t15.26-4.27a42.88,42.88,0,0,1,17.49,4L384.84,346q-7.74-3.56-13.37-3.55a7,7,0,0,0-4.23,1,3.08,3.08,0,0,0-1.32,2.53,3.67,3.67,0,0,0,1.68,2.91,64.15,64.15,0,0,0,9.12,4.68q7.14,3.21,9.91,6.9A14.89,14.89,0,0,1,389.41,369.75Z"/><polygon class="cls-1" points="287.5 110.51 296.66 129.07 317.15 132.05 302.32 146.5 305.82 166.9 287.5 157.27 269.18 166.9 272.68 146.5 257.85 132.05 278.34 129.07 287.5 110.51"/><polygon class="cls-1" points="224 125.31 230.76 139 245.87 141.2 234.94 151.85 237.52 166.9 224 159.8 210.49 166.9 213.07 151.85 202.14 141.2 217.25 139 224 125.31"/><polygon class="cls-1" points="351 125.31 357.75 139 372.86 141.2 361.93 151.85 364.51 166.9 351 159.8 337.48 166.9 340.06 151.85 329.13 141.2 344.24 139 351 125.31"/><polygon class="cls-1" points="287.5 408.1 296.66 426.66 317.15 429.64 302.32 444.09 305.82 464.49 287.5 454.86 269.18 464.49 272.68 444.09 257.85 429.64 278.34 426.66 287.5 408.1"/><polygon class="cls-1" points="224 408.1 230.76 421.79 245.87 423.99 234.94 434.64 237.52 449.69 224 442.58 210.49 449.69 213.07 434.64 202.14 423.99 217.25 421.79 224 408.1"/><polygon class="cls-1" points="351 408.1 357.75 421.79 372.86 423.99 361.93 434.64 364.51 449.69 351 442.58 337.48 449.69 340.06 434.64 329.13 423.99 344.24 421.79 351 408.1"/></g></g></svg>