<svg xmlns="http://www.w3.org/2000/svg" viewBox="0 0 84.16 84.15"><defs><style>.cls-1{fill:#46587a;}.cls-2{fill:#fff;}</style></defs><title>nutrition_icon_soy_free</title><g id="Layer_2" data-name="Layer 2"><g id="Layer_1-2" data-name="Layer 1"><path class="cls-1" d="M42.08,0A42.08,42.08,0,1,0,84.16,42.08,42.13,42.13,0,0,0,42.08,0Zm0,3.17A38.92,38.92,0,0,1,80.93,41H3.22A38.93,38.93,0,0,1,42.08,3.17Z"/><path class="cls-2" d="M27.6,54.13a4.41,4.41,0,0,0,2.7,1.14c1,0,1.54-.4,1.54-1.06s-.62-.91-1.59-1.32l-1.42-.61a3.2,3.2,0,0,1-2.23-3c0-1.83,1.64-3.28,3.92-3.28a5.13,5.13,0,0,1,3.55,1.45L32.82,49a3.67,3.67,0,0,0-2.3-.88c-.84,0-1.4.38-1.4,1s.73.92,1.69,1.3l1.4.58a3,3,0,0,1,2.18,3c0,1.82-1.52,3.41-4.14,3.41a6.08,6.08,0,0,1-4.08-1.59Z"/><path class="cls-2" d="M36.9,51.66c0-3.6,2-5.66,5-5.66s5,2.08,5,5.66-2,5.76-5,5.76S36.9,55.26,36.9,51.66Zm7.45,0c0-2.2-1-3.52-2.45-3.52s-2.45,1.32-2.45,3.52,1,3.61,2.45,3.61S44.35,53.87,44.35,51.66Z"/><path class="cls-2" d="M51.7,53.3l-3.31-7.1H51l1,2.54c.29.82.57,1.58.89,2.43H53c.31-.85.63-1.61.93-2.43l1-2.54h2.6l-3.32,7.1v3.92H51.7Z"/><path class="cls-2" d="M22.15,63.1h7v2.1H24.65v2.55h3.8v2.1h-3.8v4.27h-2.5Z"/><path class="cls-2" d="M38.14,74.12l-2.11-4H34.67v4h-2.5v-11h4c2.33,0,4.26.82,4.26,3.43a3.24,3.24,0,0,1-2,3.18l2.48,4.41Zm-3.47-6h1.27c1.3,0,2-.56,2-1.64s-.71-1.45-2-1.45H34.67Z"/><path class="cls-2" d="M43.75,63.1h6.91v2.1H46.25v2.21H50v2.08H46.25V72h4.58v2.1H43.75Z"/><path class="cls-2" d="M54.16,63.1h6.91v2.1H56.66v2.21h3.75v2.08H56.66V72h4.58v2.1H54.16Z"/><path class="cls-1" d="M45.8,12.57c-7.07-2.66-14.25-1-16.52,5.05S30.91,30.7,38,33.36s14.65-.08,16.92-6.11S52.88,15.23,45.8,12.57Zm3.83,6.36a.8.8,0,0,1-.66.35.78.78,0,0,1-.44-.13,21.57,21.57,0,0,0-9.39-3.54.8.8,0,0,1-.74-.85.77.77,0,0,1,.85-.73,22.84,22.84,0,0,1,10.16,3.8A.8.8,0,0,1,49.63,18.93Z"/></g></g></svg>