<svg xmlns="http://www.w3.org/2000/svg" viewBox="0 0 81.4 81.4"><defs><style>.cls-1{fill:#46587a;}.cls-2{fill:#fff;}</style></defs><title>nutrition_icon_gluten_free</title><g id="Layer_2" data-name="Layer 2"><g id="Layer_1-2" data-name="Layer 1"><path class="cls-1" d="M40.7,0A40.7,40.7,0,1,0,81.4,40.7,40.75,40.75,0,0,0,40.7,0Zm0,3.07A37.64,37.64,0,0,1,78.28,39.68H3.12A37.65,37.65,0,0,1,40.7,3.07Z"/><path class="cls-2" d="M14.29,44.49a4.59,4.59,0,0,1,3.31,1.39l-1.32,1.49a2.62,2.62,0,0,0-2-.8c-1.63,0-2.81,1.29-2.81,3.43s1,3.46,3,3.46a1.88,1.88,0,0,0,1.12-.32V51.31H13.88v-2h3.9v4.9a5.62,5.62,0,0,1-3.58,1.29C11.33,55.54,9,53.66,9,50.08S11.4,44.49,14.29,44.49Z"/><path class="cls-2" d="M21.09,44.69h2.42v8.63h4.2v2H21.09Z"/><path class="cls-2" d="M30,44.69h2.4v6c0,2.1.65,2.81,1.84,2.81s1.9-.71,1.9-2.81v-6h2.32v5.72c0,3.58-1.45,5.13-4.22,5.13S30,54,30,50.41Z"/><path class="cls-2" d="M44.14,46.72H41.2v-2h8.27v2H46.54v8.62h-2.4Z"/><path class="cls-2" d="M52.27,44.69H59v2H54.69v2.14h3.62v2H54.69v2.45h4.42v2H52.27Z"/><path class="cls-2" d="M62.34,44.69H64.8L67.58,50l1.06,2.35h.07c-.12-1.13-.31-2.63-.31-3.89V44.69h2.28V55.34H68.22L65.44,50l-1-2.32h-.06c.11,1.18.31,2.6.31,3.86v3.77h-2.3Z"/><path class="cls-2" d="M21.43,61h6.73v2H23.84v2.47h3.68v2H23.84v4.13H21.43Z"/><path class="cls-2" d="M36.89,71.69l-2-3.84H33.54v3.84H31.12V61H35c2.25,0,4.12.78,4.12,3.32a3.15,3.15,0,0,1-1.9,3.07l2.4,4.26Zm-3.35-5.75h1.22c1.26,0,2-.54,2-1.58S36,63,34.76,63H33.54Z"/><path class="cls-2" d="M42.32,61H49v2H44.74v2.15h3.62v2H44.74v2.45h4.43v2H42.32Z"/><path class="cls-2" d="M52.39,61h6.68v2H54.81v2.15h3.62v2H54.81v2.45h4.43v2H52.39Z"/><path class="cls-1" d="M40.7,22.2a9.5,9.5,0,0,0,4-7.54,9.49,9.49,0,0,0-4-7.53,9.49,9.49,0,0,0-4,7.53A9.5,9.5,0,0,0,40.7,22.2Z"/><path class="cls-1" d="M36.78,30.71h-.06l3.91.91,4-.91h-.06a8.88,8.88,0,0,0,4.17-2.32,9.49,9.49,0,0,0,2.51-8.14,9.47,9.47,0,0,0-8.14,2.52,8.9,8.9,0,0,0-2.46,4.78,8.9,8.9,0,0,0-2.46-4.78,9.47,9.47,0,0,0-8.14-2.52,9.46,9.46,0,0,0,2.52,8.14A8.8,8.8,0,0,0,36.78,30.71Z"/><path class="cls-1" d="M44.33,32.61a9.06,9.06,0,0,0-3.63,4.83,9,9,0,0,0-3.63-4.83,9.5,9.5,0,0,0-8.49-.73,9.5,9.5,0,0,0,4.18,7.42,9.38,9.38,0,0,0,7.94.91,9.38,9.38,0,0,0,7.94-.91,9.5,9.5,0,0,0,4.18-7.42A9.51,9.51,0,0,0,44.33,32.61Z"/></g></g></svg>