<svg xmlns="http://www.w3.org/2000/svg" viewBox="0 0 86.05 86.05"><defs><style>.cls-1{fill:#485979;}.cls-2{fill:#46587a;}.cls-3{fill:#fff;}</style></defs><title>nutrition_icon_dairy_free</title><g id="Layer_2" data-name="Layer 2"><g id="Layer_1-2" data-name="Layer 1"><path class="cls-1" d="M52.33,20.09l-2.52-7.55H36.24l-2.52,7.55a27.8,27.8,0,0,0-1.45,8.84V43.15a3.8,3.8,0,0,0,3.92,3.66H49.86a3.79,3.79,0,0,0,3.91-3.66V28.93A27.79,27.79,0,0,0,52.33,20.09Zm-.18,23.06a2.18,2.18,0,0,1-2.29,2H36.19a2.18,2.18,0,0,1-2.3-2V30.45a13.54,13.54,0,0,0,8.87-.61c5.37-2.33,8.5-.72,9.39-.11Z"/><path class="cls-2" d="M49.48,11H36.74a1.51,1.51,0,1,1,0-3H49.48a1.51,1.51,0,1,1,0,3Z"/><path class="cls-2" d="M43,0a43,43,0,1,0,43,43A43.07,43.07,0,0,0,43,0Zm0,3.24a39.81,39.81,0,0,1,39.73,38.7H3.29A39.81,39.81,0,0,1,43,3.24Z"/><path class="cls-3" d="M18.71,47.24h3.18c3.45,0,5.66,1.71,5.66,5.58S25.34,58.5,22,58.5H18.71Zm3,9.21c1.9,0,3.19-.94,3.19-3.63s-1.29-3.53-3.19-3.53h-.49v7.16Z"/><path class="cls-3" d="M36,55.82H32.55l-.69,2.68H29.27l3.54-11.26h3L39.39,58.5h-2.7Zm-.52-2-.27-1c-.31-1.12-.61-2.45-.92-3.63h-.07c-.26,1.2-.57,2.51-.88,3.63l-.27,1Z"/><path class="cls-3" d="M41.78,47.24h2.55V58.5H41.78Z"/><path class="cls-3" d="M54.27,58.5l-2.16-4.06H50.73V58.5H48.17V47.24h4.06c2.38,0,4.35.83,4.35,3.51a3.31,3.31,0,0,1-2,3.24l2.54,4.51Zm-3.54-6.08H52c1.33,0,2.06-.57,2.06-1.67s-.73-1.49-2.06-1.49H50.73Z"/><path class="cls-3" d="M61.63,54.49l-3.38-7.25H61l1,2.59c.29.85.59,1.62.91,2.49H63c.31-.87.64-1.64.95-2.49l1-2.59h2.66l-3.4,7.25v4H61.63Z"/><path class="cls-3" d="M22.65,64.52h7.11v2.14H25.21v2.61h3.88v2.14H25.21v4.37H22.65Z"/><path class="cls-3" d="M39,75.78l-2.16-4.06H35.45v4.06H32.9V64.52H37c2.38,0,4.35.83,4.35,3.51a3.3,3.3,0,0,1-2,3.24l2.54,4.51ZM35.45,69.7h1.3c1.33,0,2-.57,2-1.67s-.72-1.49-2-1.49h-1.3Z"/><path class="cls-3" d="M44.73,64.52H51.8v2.14H47.29v2.27h3.83v2.12H47.29v2.59H52v2.14H44.73Z"/><path class="cls-3" d="M55.38,64.52h7.06v2.14h-4.5v2.27h3.83v2.12H57.94v2.59h4.68v2.14H55.38Z"/></g></g></svg>