<svg xmlns="http://www.w3.org/2000/svg" viewBox="0 0 83.6 83.6"><defs><style>.cls-1{fill:none;}.cls-2{fill:#46587a;}.cls-3{fill:#fff;}</style></defs><title>nutrition_icon_natural</title><g id="Layer_2" data-name="Layer 2"><g id="Layer_1-2" data-name="Layer 1"><path class="cls-1" d="M41.8,3.15A38.67,38.67,0,0,0,3.2,40.75H80.4A38.67,38.67,0,0,0,41.8,3.15Z"/><path class="cls-2" d="M41.8,0A41.8,41.8,0,1,0,83.6,41.8,41.85,41.85,0,0,0,41.8,0ZM65.45,67.51a33.76,33.76,0,0,1-47.3,0,.78.78,0,0,1,1.1-1.12,32.21,32.21,0,0,0,45.1,0,.77.77,0,0,1,1.11,0A.78.78,0,0,1,65.45,67.51ZM3.2,40.75a38.61,38.61,0,0,1,77.2,0Z"/><path class="cls-3" d="M8.61,49.61h2.54L14,55.05l1.09,2.41h.07c-.12-1.15-.32-2.7-.32-4V49.61h2.35V60.55H14.66L11.8,55.1l-1.07-2.39h-.07c.12,1.21.32,2.67.32,4v3.88H8.61Z"/><path class="cls-3" d="M24.91,58H21.56l-.67,2.6H18.37l3.44-10.94h3L28.2,60.55H25.59ZM24.41,56l-.27-1c-.3-1.09-.59-2.38-.89-3.52h-.06c-.26,1.16-.56,2.43-.86,3.52l-.27,1Z"/><path class="cls-3" d="M30.83,51.69h-3V49.61H36.3v2.08h-3v8.86H30.83Z"/><path class="cls-3" d="M38,49.61h2.46v6.12c0,2.15.67,2.89,1.9,2.89s1.94-.74,1.94-2.89V49.61h2.39v5.87c0,3.68-1.5,5.27-4.33,5.27S38,59.16,38,55.48Z"/><path class="cls-3" d="M55.05,60.55,53,56.61H51.61v3.94H49.13V49.61h3.94c2.32,0,4.23.81,4.23,3.41a3.22,3.22,0,0,1-1.95,3.15l2.47,4.38Zm-3.44-5.91h1.26c1.29,0,2-.55,2-1.62s-.71-1.45-2-1.45H51.61Z"/><path class="cls-3" d="M64.44,58H61.08l-.67,2.6H57.89l3.44-10.94h3l3.44,10.94H65.11ZM63.93,56l-.27-1c-.3-1.09-.58-2.38-.88-3.52h-.07c-.25,1.16-.55,2.43-.86,3.52l-.27,1Z"/><path class="cls-3" d="M68.87,49.61h2.49v8.86h4.31v2.08h-6.8Z"/><path class="cls-2" d="M15.77,33.51h3.44V25.22h-3V22.54A11.39,11.39,0,0,0,20.37,21h3.19V33.51h2.88V37H15.77Z"/><path class="cls-2" d="M28,28.91c0-5.48,2.42-8.24,6-8.24s6,2.78,6,8.24-2.42,8.39-6,8.39S28,34.39,28,28.91Zm7.83,0c0-4.24-.86-4.9-1.87-4.9s-1.87.66-1.87,4.9S32.93,34,33.94,34,35.81,33.15,35.81,28.91Z"/><path class="cls-2" d="M41,28.91c0-5.48,2.42-8.24,6-8.24s6,2.78,6,8.24-2.42,8.39-6,8.39S41,34.39,41,28.91Zm7.83,0C48.82,24.67,48,24,47,24s-1.87.66-1.87,4.9S45.94,34,47,34,48.82,33.15,48.82,28.91Z"/><path class="cls-2" d="M58.38,37a.77.77,0,0,1-.36-.09.78.78,0,0,1-.34-1.06l7.43-14.27a.79.79,0,0,1,1.4.72L59.08,36.61A.78.78,0,0,1,58.38,37Z"/><path class="cls-2" d="M59.75,25.39a5,5,0,0,0-2.59-4.16,5.06,5.06,0,0,0-2.58,4.16,5.08,5.08,0,0,0,2.58,4.17A5.07,5.07,0,0,0,59.75,25.39Z"/><ellipse class="cls-2" cx="66.79" cy="32.83" rx="2.59" ry="4.16"/></g></g></svg>