<svg xmlns="http://www.w3.org/2000/svg" viewBox="0 0 83.52 83.52"><defs><style>.cls-1{fill:#46587a;}.cls-2{fill:#fff;}</style></defs><title>nutrition_icon_vegetarian</title><g id="Layer_2" data-name="Layer 2"><g id="Layer_1-2" data-name="Layer 1"><path class="cls-1" d="M62.08,17.33,62,16l-1.27.39a85.13,85.13,0,0,0-12.92,5.15,12.67,12.67,0,0,1,2.49,2.92A14.41,14.41,0,0,1,47.55,42.1a10.59,10.59,0,0,0,3.4.57A10.85,10.85,0,0,0,59.82,38C63,33.46,62.18,19,62.08,17.33Z"/><path class="cls-1" d="M48.47,25.49c-3.34-5.92-21.73-13.44-21.73-13.44s-3,19.63.3,25.55a12.24,12.24,0,0,0,16.33,4.88l-3.3-5.84L31.62,34.4a.79.79,0,1,1,.4-1.52l7,1.85-4-7-4.54-1.1a.8.8,0,0,1-.58-.95.78.78,0,0,1,1-.58l3.12.76-3.65-6.46a.79.79,0,1,1,1.37-.78l3.5,6.2.57-2.45a.81.81,0,0,1,1-.59.79.79,0,0,1,.58.95l-1,4.11,4,7,1.61-6.52a.81.81,0,0,1,1-.58.78.78,0,0,1,.57.95l-2,8.14,3.29,5.83A12.3,12.3,0,0,0,48.47,25.49Z"/><path class="cls-1" d="M41.76,0A41.76,41.76,0,1,0,83.52,41.76,41.8,41.8,0,0,0,41.76,0ZM65.37,68.32a33.76,33.76,0,0,1-47.3,0,.78.78,0,0,1,1.1-1.12,32.21,32.21,0,0,0,45.1,0,.78.78,0,0,1,1.1,1.12ZM3.2,40.71a38.57,38.57,0,0,1,77.12,0Z"/><path class="cls-2" d="M9.12,55.27,6.53,47.18h2l1,3.42c.27,1,.53,1.88.72,2.89h0c.21-1,.46-1.93.74-2.85l1-3.46H14l-2.72,8.09Z"/><path class="cls-2" d="M19.66,51.85h-3v1.92H20v1.5H14.85V47.18h5v1.5H16.68v1.68h3Z"/><path class="cls-2" d="M28,54.9a9.11,9.11,0,0,1-2.7.45A4.53,4.53,0,0,1,22,54.26a3.94,3.94,0,0,1-1.14-2.94c0-2.69,2-4.22,4.62-4.22a5.45,5.45,0,0,1,2.25.4L27.36,49a4.47,4.47,0,0,0-1.88-.35,2.64,2.64,0,0,0-.13,5.27,2.52,2.52,0,0,0,.9-.12V52.07H25V50.64h3Z"/><path class="cls-2" d="M34.25,51.85h-3v1.92H34.6v1.5H29.44V47.18h5v1.5H31.28v1.68h3Z"/><path class="cls-2" d="M37.47,48.72H35.3V47.18h6.21v1.54H39.3v6.55H37.47Z"/><path class="cls-2" d="M43.5,53.19l-.57,2.08H41l2.47-8.09h2.4l2.51,8.09h-2l-.62-2.08Zm2-1.37-.5-1.71c-.14-.48-.29-1.08-.41-1.56h0c-.12.48-.24,1.09-.37,1.56l-.48,1.71Z"/><path class="cls-2" d="M49.49,47.29a17,17,0,0,1,2.44-.17,4.07,4.07,0,0,1,2.61.64,2.05,2.05,0,0,1,.75,1.69,2.15,2.15,0,0,1-1.43,2v0A2,2,0,0,1,54.94,53a22.54,22.54,0,0,0,.66,2.28H53.73a9.42,9.42,0,0,1-.57-1.89c-.21-1-.56-1.28-1.3-1.29H51.3v3.18H49.49Zm1.81,3.48H52c.91,0,1.45-.46,1.45-1.16s-.5-1.12-1.34-1.13a5.16,5.16,0,0,0-.83.06Z"/><path class="cls-2" d="M58.44,47.18v8.09H56.61V47.18Z"/><path class="cls-2" d="M61.91,53.19l-.57,2.08h-1.9l2.47-8.09h2.4l2.51,8.09h-2l-.62-2.08ZM64,51.82l-.5-1.71c-.14-.48-.29-1.08-.41-1.56h0c-.12.48-.24,1.09-.37,1.56l-.48,1.71Z"/><path class="cls-2" d="M67.9,55.27V47.18H70l1.67,3A23.42,23.42,0,0,1,73,52.92h0a30,30,0,0,1-.16-3.37V47.18h1.68v8.09H72.67L71,52.15a30.4,30.4,0,0,1-1.41-2.86l0,0c0,1.06.07,2.2.07,3.52v2.44Z"/></g></g></svg>