<svg xmlns="http://www.w3.org/2000/svg" viewBox="0 0 82.22 82.21"><defs><style>.cls-1{fill:#46587a;}.cls-2{fill:#fff;}</style></defs><title>nutrition_icon_gmo_free</title><g id="Layer_2" data-name="Layer 2"><g id="Layer_1-2" data-name="Layer 1"><path class="cls-1" d="M41.11,0A41.11,41.11,0,1,0,82.22,41.11,41.15,41.15,0,0,0,41.11,0Zm0,3.1a38,38,0,0,1,38,37H3.15A38,38,0,0,1,41.11,3.1Z"/><path class="cls-2" d="M28.24,44.94a4.68,4.68,0,0,1,3.35,1.4l-1.34,1.51a2.61,2.61,0,0,0-2-.81c-1.65,0-2.83,1.3-2.83,3.46s1,3.5,3,3.5a1.92,1.92,0,0,0,1.14-.33V51.82H27.83v-2h3.94v4.95a5.66,5.66,0,0,1-3.61,1.31c-2.91,0-5.22-1.9-5.22-5.52S25.32,44.94,28.24,44.94Z"/><path class="cls-2" d="M35.11,45.14h2.58L39.49,50l.64,1.88h.07L40.84,50l1.75-4.83h2.57V55.9H42.88V52c0-1.05.2-2.62.32-3.66h-.07l-.87,2.49L40.59,55h-1L38,50.78l-.86-2.49H37c.12,1,.32,2.61.32,3.66V55.9H35.11Z"/><path class="cls-2" d="M48.32,50.47c0-3.52,2-5.53,4.89-5.53s4.88,2,4.88,5.53-2,5.63-4.88,5.63S48.32,54,48.32,50.47Zm7.28,0c0-2.15-.92-3.43-2.39-3.43s-2.4,1.28-2.4,3.43S51.75,54,53.21,54,55.6,52.63,55.6,50.47Z"/><path class="cls-2" d="M21.64,61.65h6.8V63.7H24.08v2.49h3.71v2H24.08v4.17H21.64Z"/><path class="cls-2" d="M37.26,72.41l-2.07-3.88H33.87v3.88H31.43V61.65h3.88c2.28,0,4.16.79,4.16,3.35a3.17,3.17,0,0,1-1.92,3.1L40,72.41ZM33.87,66.6h1.24c1.27,0,2-.54,2-1.6s-.7-1.42-2-1.42H33.87Z"/><path class="cls-2" d="M42.74,61.65h6.75V63.7H45.18v2.16h3.67v2H45.18v2.47h4.48v2H42.74Z"/><path class="cls-2" d="M52.91,61.65h6.75V63.7H55.35v2.16H59v2H55.35v2.47h4.48v2H52.91Z"/><path class="cls-1" d="M51.59,30.94,46,21.66V11.27a.77.77,0,0,0-.77-.77H37a.76.76,0,0,0-.77.77V21.66l-5.58,9.28a4.71,4.71,0,0,0,4,7.15H47.54a4.72,4.72,0,0,0,4.05-7.15Zm-14-8.66a.71.71,0,0,0,.11-.4V12h6.71v9.84a.8.8,0,0,0,.11.4L46.8,26H35.41Z"/><path class="cls-1" d="M36.4,8.93h9.42a1,1,0,1,0,0-2.06H36.4a1,1,0,0,0,0,2.06Z"/></g></g></svg>